# xmcd
#
# Track frame offsets:
#	150
#	14918
#	35191
#	46224
#	56575
#	67495
#	86788
#	103611
#	122459
#	135723
#
# Disc length: 1934 seconds
#
# Revision: 1
# Processed by: cddbd v1.5.2PL0 Copyright (c) Steve Scherf et al.
# Submitted via: EZCDAudioConverter 4.0.5.1
#
DISCID=97078c0a
DTITLE=The Flying Burrito Brothers - Flying Again
DYEAR=1975
DGENRE=Country
TTITLE0=Easy To Get On
TTITLE1=Wind And Rain
TTITLE2=Why Baby Why
TTITLE3=Dim Lights Thick Smoke
TTITLE4=You Left The Water Running
TTITLE5=Building Fires
TTITLE6=Desert Childhood
TTITLE7=Bon Soir Blues
TTITLE8=River Road
TTITLE9=Hot Burrito #3
EXTD=
EXTT0=
EXTT1=
EXTT2=
EXTT3=
EXTT4=
EXTT5=
EXTT6=
EXTT7=
EXTT8=
EXTT9=
PLAYORDER=
